# xmcd CD database file
# Copyright (C) 1997 Ti Kan
# 
# Track frame offsets:
#     175
#     10550
#     23290
#     34927
#     48465
#     62887
#     79337
#     96737
#     110645
#     120677
#     132795
#     143135
# 
# Disc length: 2049 seconds
# 
# Revision: 1
# Processed by: cddbd v1.4b41PL1 Copyright (c) Steve Scherf et al.
# Submitted via: DiscPlay 4.0.4
# 
DISCID=a007ff0c
DTITLE=Tony Rice and Various Others - The BlueGrass Suspects
DYEAR=1900
DGENRE=
TTITLE0=Rock Hearts
TTITLE1=Midnight on the Mandolin
TTITLE2=Life's Too Short
TTITLE3=Bonaparte's Retreat
TTITLE4=What Does Tha Deep Sea Say
TTITLE5=Your Long Journey
TTITLE6=Lost John
TTITLE7=Big River
TTITLE8=Free Little Bird
TTITLE9=D.B.D.
TTITLE10=Hey Lonesome
TTITLE11=Lonesome Hearted Blues
EXTD=
EXTT0=
EXTT1=
EXTT2=
EXTT3=
EXTT4=
EXTT5=
EXTT6=
EXTT7=
EXTT8=
EXTT9=
EXTT10=
EXTT11=
PLAYORDER=
